<svg width="36" height="42" viewBox="0 0 36 42" fill="none" xmlns="http://www.w3.org/2000/svg">
<rect y="0.75" width="36" height="40.5" fill="white" fill-opacity="0.01"/>
<mask id="mask0_25_10250" style="mask-type:luminance" maskUnits="userSpaceOnUse" x="0" y="0" width="36" height="42">
<rect y="0.75" width="36" height="40.5" fill="white"/>
</mask>
<g mask="url(#mask0_25_10250)">
<path fill-rule="evenodd" clip-rule="evenodd" d="M11.7902 5.57129H32.0945C33.1503 5.57129 34.1628 6.04313 34.9094 6.88301C35.6559 7.72288 36.0753 8.862 36.0753 10.0498V31.135C36.0753 32.3227 35.6559 33.4618 34.9094 34.3017C34.1628 35.1416 33.1503 35.6134 32.0945 35.6134H11.7902C11.543 35.6134 11.3079 35.4934 11.1451 35.2841L0.212077 21.2274C-0.0706924 20.8638 -0.0706924 20.3209 0.212077 19.9574L11.1451 5.90059C11.3079 5.69132 11.543 5.57129 11.7902 5.57129ZM1.99609 20.5924L12.1791 33.6849H32.0945C32.6956 33.6849 33.2721 33.4162 33.6972 32.938C34.1222 32.4598 34.361 31.8112 34.361 31.135V10.0498C34.361 9.37349 34.1222 8.72491 33.6972 8.24671C33.2721 7.76851 32.6956 7.49986 32.0945 7.49986H12.1791L1.99609 20.5924Z" fill="white"/>
<path fill-rule="evenodd" clip-rule="evenodd" d="M28.0148 16.0031L18.6437 26.5457C18.3089 26.9222 17.7662 26.9222 17.4315 26.5457C17.0967 26.1691 17.0967 25.5585 17.4315 25.182L26.8027 14.6394C27.1374 14.2628 27.6801 14.2628 28.0148 14.6394C28.3496 15.0159 28.3496 15.6265 28.0148 16.0031Z" fill="white"/>
<path fill-rule="evenodd" clip-rule="evenodd" d="M18.6437 14.6394L28.0148 25.182C28.3496 25.5585 28.3496 26.1691 28.0148 26.5457C27.6801 26.9222 27.1374 26.9222 26.8027 26.5457L17.4315 16.0031C17.0967 15.6265 17.0967 15.0159 17.4315 14.6394C17.7662 14.2628 18.3089 14.2628 18.6437 14.6394Z" fill="white"/>
</g>
</svg>
