<svg width="132" height="132" viewBox="0 0 132 132" fill="none" xmlns="http://www.w3.org/2000/svg">
<g clip-path="url(#clip0_25_8447)">
<circle cx="66" cy="66" r="66" fill="#DC0000"/>
<path d="M31.5579 61.7275C28.4572 64.8282 26.8731 68.5693 27.0079 73.0856C27.1091 75.6134 27.8168 78.1748 29.4346 79.7926C30.5468 80.9385 32.1309 81.5789 34.0857 81.2419L46.5223 79.1185C48.1738 78.8152 49.4208 78.276 50.2971 77.4334C51.3757 76.4223 51.7801 74.8045 51.7801 72.6138L51.8475 69.2097C51.8475 68.6704 52.0497 68.266 52.3868 67.929C52.6901 67.5582 53.1619 67.3897 53.5327 67.2886C55.6897 66.7156 60.3071 66.109 66.003 66.109C71.6989 66.109 76.2826 66.5808 78.4734 67.3223C78.8441 67.4234 79.2485 67.6256 79.5519 67.929C79.8889 68.2323 80.0574 68.603 80.0574 69.1086L80.1585 72.6138C80.2259 74.8045 80.6641 76.3886 81.7089 77.4334C82.5852 78.3097 83.8322 78.8152 85.5174 79.1185L97.5833 81.1745C99.6392 81.5452 101.324 80.8374 102.605 79.5904C104.088 78.0737 104.964 75.7145 104.998 72.9508C105.065 68.4345 103.347 64.7271 100.313 61.7275C93.4715 54.8857 80.1248 51.7849 66.003 51.8186C51.8812 51.8523 38.3998 54.8857 31.5579 61.7275Z" fill="white"/>
</g>
<defs>
<clipPath id="clip0_25_8447">
<rect width="132" height="132" fill="white"/>
</clipPath>
</defs>
</svg>
