<svg width="40" height="40" viewBox="0 0 40 40" fill="none" xmlns="http://www.w3.org/2000/svg">
<g clip-path="url(#clip0_8_137)">
<path fill-rule="evenodd" clip-rule="evenodd" d="M32.7056 7.12119C29.2934 3.70156 24.7437 1.81818 19.9134 1.81818C15.083 1.81818 10.5334 3.70156 7.12113 7.12119C3.70889 10.5408 1.81812 15.0831 1.81812 19.9135C1.81812 24.7437 3.70151 29.2934 7.12113 32.7056C10.5407 36.1179 15.083 38.0086 19.9134 38.0086C24.7437 38.0086 29.2934 36.1253 32.7056 32.7056C36.1178 29.286 38.0086 24.7437 38.0086 19.9135C38.0086 15.0831 36.1252 10.5334 32.7056 7.12119ZM36.3689 19.101H29.3524C29.2859 16.3092 28.8945 13.6207 28.2077 11.2351C29.5445 10.5482 30.7927 9.68408 31.9375 8.66482C34.5225 11.4271 36.1696 15.0757 36.3689 19.101ZM27.7349 20.7258H20.7258V26.6566C22.8012 26.7527 24.8176 27.1958 26.7083 27.9565C27.3213 25.7556 27.6758 23.2961 27.7349 20.7258ZM30.7705 7.53479C29.8251 8.36939 28.7911 9.07845 27.698 9.66927C27.4174 8.8864 27.0997 8.14782 26.7452 7.45355C26.0436 6.06502 25.2459 4.9276 24.367 4.05608C26.7674 4.72819 28.9462 5.93208 30.7705 7.53479ZM25.2977 8.16998C24.0125 5.62926 22.4171 4.07085 20.7258 3.69418V11.597C22.6387 11.501 24.4926 11.08 26.2282 10.3635C25.9549 9.58809 25.6447 8.85686 25.2977 8.16998ZM26.7157 11.922C27.3213 14.1082 27.6685 16.5529 27.7276 19.1084H20.7258V13.2293C22.8086 13.1333 24.8249 12.6827 26.7157 11.922ZM12.0917 19.101H19.0936V13.2144C17.0181 13.1258 14.9944 12.6827 13.1037 11.9145C12.498 14.1008 12.1508 16.5454 12.0917 19.101ZM19.1083 3.69418V11.597C17.1954 11.501 15.3342 11.08 13.6058 10.3635C13.8791 9.58809 14.1894 8.85686 14.5365 8.16998C15.8217 5.62926 17.4169 4.07085 19.1083 3.69418ZM13.0888 7.45355C13.7906 6.0724 14.5882 4.9276 15.4671 4.05608C13.0667 4.72819 10.8879 5.93208 9.06356 7.53479C10.0164 8.36939 11.043 9.07845 12.1361 9.66927C12.4241 8.8864 12.7417 8.14782 13.0888 7.45355ZM7.89664 8.66482C9.04147 9.68408 10.2897 10.5408 11.6265 11.2351C10.9396 13.6281 10.5407 16.3092 10.4817 19.101H3.46515C3.66457 15.0757 5.31161 11.4271 7.89664 8.66482ZM10.4817 20.7258H3.46515C3.66457 24.7659 5.319 28.4219 7.92619 31.1915C9.06356 30.1723 10.3118 29.3229 11.6413 28.6361C10.947 26.2356 10.5481 23.5398 10.4817 20.7258ZM9.09311 32.3215C10.0386 31.4944 11.0652 30.7854 12.1508 30.2018C12.4316 30.9626 12.7417 31.6938 13.0888 32.3733C13.7906 33.7618 14.5882 34.8993 15.4671 35.7782C13.0815 35.106 10.91 33.9095 9.09311 32.3215ZM14.5365 31.6568C15.8217 34.1975 17.4169 35.756 19.1083 36.1326V28.2815C17.2027 28.3702 15.3489 28.7912 13.6207 29.5076C13.8939 30.2684 14.1967 30.9847 14.5365 31.6568ZM13.1258 27.9565C12.5127 25.7556 12.1583 23.2961 12.0992 20.7258H19.1083V26.6566C17.0329 26.7453 15.0166 27.1884 13.1258 27.9565ZM20.7332 28.2815V36.1326C22.4246 35.756 24.0198 34.1975 25.305 31.6568C25.6447 30.9847 25.9476 30.2684 26.2208 29.5076C24.4926 28.7912 22.6387 28.3775 20.7332 28.2815ZM24.3744 35.7707C25.2533 34.8993 26.0509 33.7544 26.7527 32.3659C27.0997 31.6864 27.4099 30.9552 27.6907 30.1945C28.7763 30.7779 29.8029 31.487 30.7484 32.3142C28.9315 33.9095 26.76 35.106 24.3744 35.7707ZM28.2077 28.6361C29.5371 29.3229 30.7853 30.1797 31.9227 31.1915C34.5225 28.4219 36.1769 24.7659 36.3837 20.7258H29.3672C29.3007 23.5324 28.9019 26.2356 28.2077 28.6361Z" fill="white"/>
</g>
<defs>
<clipPath id="clip0_8_137">
<rect width="40" height="40" fill="white"/>
</clipPath>
</defs>
</svg>
