<svg width="88" height="80" viewBox="0 0 88 80" fill="none" xmlns="http://www.w3.org/2000/svg">
<g clip-path="url(#clip0_25_8386)">
<path fill-rule="evenodd" clip-rule="evenodd" d="M78 2H10C5.58172 2 2 5.58172 2 10V70C2 74.4183 5.58172 78 10 78H78C82.4183 78 86 74.4183 86 70V10C86 5.58172 82.4183 2 78 2ZM10 0C4.47715 0 0 4.47715 0 10V70C0 75.5229 4.47715 80 10 80H78C83.5229 80 88 75.5229 88 70V10C88 4.47715 83.5229 0 78 0H10Z" fill="#434343"/>
<g clip-path="url(#clip1_25_8386)">
<mask id="mask0_25_8386" style="mask-type:luminance" maskUnits="userSpaceOnUse" x="24" y="20" width="40" height="40">
<rect x="24" y="20" width="40" height="40" fill="white"/>
</mask>
<g mask="url(#mask0_25_8386)">
<path fill-rule="evenodd" clip-rule="evenodd" d="M25.0693 39.1207C24.7763 39.1207 24.5327 39.3414 24.5327 39.6079V40.0151C24.5327 40.2815 24.7725 40.5022 25.0693 40.5022H62.9266C63.2196 40.5022 63.4632 40.2815 63.4632 40.0151V39.6079C63.4594 39.3376 63.2196 39.1207 62.9228 39.1207H25.0693ZM27.6612 24.2244C28.1331 23.8324 28.7687 23.6155 29.4423 23.6155H39.4937V22.3976H29.4461C27.4138 22.3976 25.762 23.8134 25.762 25.5527V33.9488H26.9837V25.5489H26.9799C26.9799 25.0579 27.2235 24.586 27.6612 24.2244ZM27.0712 54.3747V45.9786H25.8496V54.3747C25.8496 56.114 27.5013 57.5298 29.5337 57.5298H39.585V56.3081H29.5375C28.86 56.3081 28.2282 56.0912 27.7525 55.6992C27.311 55.3338 27.0712 54.8657 27.0712 54.3747ZM60.0683 55.7563C59.5964 56.1483 58.9608 56.3652 58.2872 56.3652H48.2358V57.5869H58.2872C60.3195 57.5869 61.9713 56.1711 61.9713 54.4318V46.0357H60.7496V54.4318C60.7496 54.9228 60.506 55.3947 60.0683 55.7563ZM60.7306 25.606V34.0021H61.9523V25.606C61.9523 23.8667 60.3005 22.4509 58.2681 22.4509H48.2168V23.6764H58.2681C58.9418 23.6764 59.5774 23.8895 60.0493 24.2815C60.4908 24.6469 60.7306 25.115 60.7306 25.606Z" fill="white"/>
<path d="M63.4632 39.6079H63.9632L63.9631 39.6008L63.4632 39.6079ZM27.6612 24.2244L27.9796 24.6099L27.9806 24.609L27.6612 24.2244ZM39.4937 23.6155V24.1155H39.9937V23.6155H39.4937ZM39.4937 22.3976H39.9937V21.8976H39.4937V22.3976ZM25.762 33.9488H25.262V34.4488H25.762V33.9488ZM26.9837 33.9488V34.4488H27.4837V33.9488H26.9837ZM26.9837 25.5489H27.4837V25.0489H26.9837V25.5489ZM26.9799 25.5489H26.4799V26.0489H26.9799V25.5489ZM27.0712 45.9786H27.5712V45.4786H27.0712V45.9786ZM25.8496 45.9786V45.4786H25.3496V45.9786H25.8496ZM39.585 57.5298V58.0298H40.085V57.5298H39.585ZM39.585 56.3081H40.085V55.8081H39.585V56.3081ZM27.7525 55.6992L27.4337 56.0844L27.4345 56.0851L27.7525 55.6992ZM60.0683 55.7563L59.7499 55.3708L59.7489 55.3717L60.0683 55.7563ZM48.2358 56.3652V55.8652H47.7358V56.3652H48.2358ZM48.2358 57.5869H47.7358V58.0869H48.2358V57.5869ZM61.9713 46.0357H62.4713V45.5357H61.9713V46.0357ZM60.7496 46.0357V45.5357H60.2496V46.0357H60.7496ZM60.7306 34.0021H60.2306V34.5021H60.7306V34.0021ZM61.9523 34.0021V34.5021H62.4523V34.0021H61.9523ZM48.2168 22.4509V21.9509H47.7168V22.4509H48.2168ZM48.2168 23.6764H47.7168V24.1764H48.2168V23.6764ZM60.0493 24.2815L59.7298 24.6661L59.7305 24.6667L60.0493 24.2815ZM25.0693 38.6207C24.547 38.6207 24.0327 39.0207 24.0327 39.6079H25.0327C25.0327 39.6185 25.0301 39.6273 25.0276 39.6325C25.0254 39.6372 25.0243 39.6372 25.0271 39.6347C25.0336 39.6288 25.0483 39.6207 25.0693 39.6207V38.6207ZM24.0327 39.6079V40.0151H25.0327V39.6079H24.0327ZM24.0327 40.0151C24.0327 40.6001 24.5408 41.0022 25.0693 41.0022V40.0022C25.0453 40.0022 25.0313 39.9934 25.0266 39.9891C25.0244 39.9871 25.0258 39.9876 25.028 39.9923C25.0304 39.9976 25.0327 40.0057 25.0327 40.0151H24.0327ZM25.0693 41.0022H62.9266V40.0022H25.0693V41.0022ZM62.9266 41.0022C63.4489 41.0022 63.9632 40.6023 63.9632 40.0151H62.9632C62.9632 40.0044 62.9658 39.9957 62.9683 39.9904C62.9705 39.9857 62.9716 39.9857 62.9688 39.9883C62.9623 39.9942 62.9476 40.0022 62.9266 40.0022V41.0022ZM63.9632 40.0151V39.6079H62.9632V40.0151H63.9632ZM63.9631 39.6008C63.9549 39.0168 63.4507 38.6207 62.9228 38.6207V39.6207C62.949 39.6207 62.9634 39.6301 62.9679 39.6341C62.97 39.6361 62.9689 39.6358 62.9671 39.6319C62.965 39.6275 62.9633 39.6213 62.9632 39.6149L63.9631 39.6008ZM62.9228 38.6207H25.0693V39.6207H62.9228V38.6207ZM27.9806 24.609C28.3536 24.2992 28.8728 24.1155 29.4423 24.1155V23.1155C28.6645 23.1155 27.9126 23.3656 27.3417 23.8398L27.9806 24.609ZM29.4423 24.1155H39.4937V23.1155H29.4423V24.1155ZM39.9937 23.6155V22.3976H38.9937V23.6155H39.9937ZM39.4937 21.8976H29.4461V22.8976H39.4937V21.8976ZM29.4461 21.8976C27.213 21.8976 25.262 23.4674 25.262 25.5527H26.262C26.262 24.1593 27.6145 22.8976 29.4461 22.8976V21.8976ZM25.262 25.5527V33.9488H26.262V25.5527H25.262ZM25.762 34.4488H26.9837V33.4488H25.762V34.4488ZM27.4837 33.9488V25.5489H26.4837V33.9488H27.4837ZM26.9837 25.0489H26.9799V26.0489H26.9837V25.0489ZM27.4799 25.5489C27.4799 25.2321 27.6361 24.8936 27.9796 24.6099L27.3427 23.8389C26.8108 24.2783 26.4799 24.8838 26.4799 25.5489H27.4799ZM27.5712 54.3747V45.9786H26.5712V54.3747H27.5712ZM27.0712 45.4786H25.8496V46.4786H27.0712V45.4786ZM25.3496 45.9786V54.3747H26.3496V45.9786H25.3496ZM25.3496 54.3747C25.3496 56.46 27.3006 58.0298 29.5337 58.0298V57.0298C27.7021 57.0298 26.3496 55.7681 26.3496 54.3747H25.3496ZM29.5337 58.0298H39.585V57.0298H29.5337V58.0298ZM40.085 57.5298V56.3081H39.085V57.5298H40.085ZM39.585 55.8081H29.5375V56.8081H39.585V55.8081ZM29.5375 55.8081C28.965 55.8081 28.4485 55.6248 28.0705 55.3133L27.4345 56.0851C28.008 56.5576 28.7551 56.8081 29.5375 56.8081V55.8081ZM28.0713 55.314C27.724 55.0266 27.5712 54.692 27.5712 54.3747H26.5712C26.5712 55.0394 26.898 55.641 27.4337 56.0844L28.0713 55.314ZM59.7489 55.3717C59.3759 55.6815 58.8567 55.8652 58.2872 55.8652V56.8652C59.065 56.8652 59.8169 56.6151 60.3878 56.1409L59.7489 55.3717ZM58.2872 55.8652H48.2358V56.8652H58.2872V55.8652ZM47.7358 56.3652V57.5869H48.7358V56.3652H47.7358ZM48.2358 58.0869H58.2872V57.0869H48.2358V58.0869ZM58.2872 58.0869C60.5203 58.0869 62.4713 56.517 62.4713 54.4318H61.4713C61.4713 55.8252 60.1188 57.0869 58.2872 57.0869V58.0869ZM62.4713 54.4318V46.0357H61.4713V54.4318H62.4713ZM61.9713 45.5357H60.7496V46.5357H61.9713V45.5357ZM60.2496 46.0357V54.4318H61.2496V46.0357H60.2496ZM60.2496 54.4318C60.2496 54.7486 60.0934 55.087 59.7499 55.3708L60.3868 56.1418C60.9187 55.7024 61.2496 55.0969 61.2496 54.4318H60.2496ZM60.2306 25.606V34.0021H61.2306V25.606H60.2306ZM60.7306 34.5021H61.9523V33.5021H60.7306V34.5021ZM62.4523 34.0021V25.606H61.4523V34.0021H62.4523ZM62.4523 25.606C62.4523 23.5207 60.5012 21.9509 58.2681 21.9509V22.9509C60.0997 22.9509 61.4523 24.2126 61.4523 25.606H62.4523ZM58.2681 21.9509H48.2168V22.9509H58.2681V21.9509ZM47.7168 22.4509V23.6764H48.7168V22.4509H47.7168ZM48.2168 24.1764H58.2681V23.1764H48.2168V24.1764ZM58.2681 24.1764C58.8397 24.1764 59.3583 24.3575 59.7298 24.6661L60.3688 23.8969C59.7964 23.4215 59.0438 23.1764 58.2681 23.1764V24.1764ZM59.7305 24.6667C60.0778 24.9541 60.2306 25.2887 60.2306 25.606H61.2306C61.2306 24.9413 60.9038 24.3397 60.3681 23.8963L59.7305 24.6667Z" fill="white"/>
</g>
</g>
</g>
<defs>
<clipPath id="clip0_25_8386">
<rect width="88" height="80" fill="white"/>
</clipPath>
<clipPath id="clip1_25_8386">
<rect width="40" height="40" fill="white" transform="translate(24 20)"/>
</clipPath>
</defs>
</svg>
